<?xml version="1.0" encoding="UTF-8" standalone="no"?>
<!-- Created with Inkscape (http://www.inkscape.org/) -->

<svg
   width="210mm"
   height="297mm"
   viewBox="0 0 210 297"
   version="1.1"
   id="svg1"
   xml:space="preserve"
   inkscape:version="1.3.2 (091e20e, 2023-11-25, custom)"
   sodipodi:docname="PeasantCardDev.svg"
   inkscape:export-filename="PeasantCardDev.png"
   inkscape:export-xdpi="129.71147"
   inkscape:export-ydpi="129.71147"
   xmlns:inkscape="http://www.inkscape.org/namespaces/inkscape"
   xmlns:sodipodi="http://sodipodi.sourceforge.net/DTD/sodipodi-0.dtd"
   xmlns="http://www.w3.org/2000/svg"
   xmlns:svg="http://www.w3.org/2000/svg"><sodipodi:namedview
     id="namedview1"
     pagecolor="#ffffff"
     bordercolor="#000000"
     borderopacity="0.25"
     inkscape:showpageshadow="2"
     inkscape:pageopacity="0.0"
     inkscape:pagecheckerboard="0"
     inkscape:deskcolor="#d1d1d1"
     inkscape:document-units="mm"
     inkscape:zoom="1.5004889"
     inkscape:cx="289.90551"
     inkscape:cy="239.58858"
     inkscape:window-width="2560"
     inkscape:window-height="1369"
     inkscape:window-x="-8"
     inkscape:window-y="-8"
     inkscape:window-maximized="1"
     inkscape:current-layer="layer1"
     showgrid="false" /><defs
     id="defs1" /><g
     inkscape:label="Layer 1"
     inkscape:groupmode="layer"
     id="layer1"><circle
       style="fill:#ffb14e;stroke-width:2.5;fill-opacity:1;stroke:#000000;stroke-opacity:1;stroke-dasharray:none"
       id="path1"
       cx="50.746853"
       cy="50.996223"
       r="23.814861" /><path
       style="fill:#4b3e1b;fill-opacity:1;stroke:#000000;stroke-width:0.5;stroke-dasharray:none;stroke-opacity:1"
       d="m 50.577085,35.782745 6.305683,1.963635 1.8738,2.12795 1.11254,3.662493 0.839603,5.3077 -0.364257,3.629737 -1.508266,-5.469282 -1.255582,-2.450156 -2.015358,-1.224511 z"
       id="path2"
       sodipodi:nodetypes="cccccccccc" /><path
       style="fill:#907513;fill-opacity:1;stroke:#000000;stroke-width:0.499999;stroke-dasharray:none;stroke-opacity:1"
       d="m 41.173384,55.14765 -3.934502,1.737876 -1.355441,1.215676 1.070235,1.219593 11.798845,8.8799 14.15381,-9.053943 1.203513,-1.19254 -1.188341,-1.314325 -4.732138,-2.417978"
       id="path7"
       sodipodi:nodetypes="ccccccccc" /><path
       style="fill:#4b3e1b;fill-opacity:1;stroke:#000000;stroke-width:0.572784;stroke-dasharray:none;stroke-opacity:1"
       d="m 50.700294,35.285888 -4.713572,1.85687 -2.571048,3.85656 -2.348886,14.408681 1.063374,0.589039 4.370956,3.157562 2.65454,3.107595 1.948147,-2.627179 6.248149,-4.077069 1.096864,-0.753052 -2.821481,-15.202183 -1.27146,-2.535791 z"
       id="path4"
       sodipodi:nodetypes="ccccccccccccc" /><path
       style="fill:#6f633b;fill-opacity:1;stroke:#000000;stroke-width:0.5;stroke-dasharray:none;stroke-opacity:1"
       d="m 45.92697,38.582716 -3.145095,15.342979 2.68007,3.153017 4.020104,1.049775 3.547137,-1.522722 3.310674,-2.837727 -2.606835,-15.241058 z"
       id="path3-6"
       sodipodi:nodetypes="cccccccc" /><path
       style="fill:#ffce8f;fill-opacity:1;stroke:#000000;stroke-width:0.499999;stroke-dasharray:none;stroke-opacity:1"
       d="m 46.778315,40.754534 -2.487435,12.13466 2.11965,2.4937 2.826809,0.72931 3.158071,-1.10336 2.61839,-2.24434 -2.061729,-12.05405 z"
       id="path3"
       sodipodi:nodetypes="cccccccc" /><path
       style="fill:none;stroke:#000000;stroke-width:0.499999;stroke-dasharray:none;stroke-opacity:1"
       d="m 46.985872,44.287184 2.160058,1.71923"
       id="path6" /><path
       style="fill:none;stroke:#000000;stroke-width:0.499999;stroke-dasharray:none;stroke-opacity:1"
       d="m 52.410003,44.302124 -2.160058,1.71923"
       id="path6-2" /><path
       style="fill:none;stroke:#000000;stroke-width:0.377697;stroke-dasharray:none;stroke-opacity:1"
       d="m 58.684989,58.430113 -6.498875,4.238396 -0.04709,-0.04709"
       id="path8" /><path
       style="fill:none;stroke:#000000;stroke-width:0.377697;stroke-dasharray:none;stroke-opacity:1"
       d="m 40.671477,58.710144 6.498875,4.238396 0.04709,-0.04709"
       id="path8-1" /><path
       style="fill:#ff6c6c;fill-opacity:1;stroke:#000000;stroke-width:0.499999;stroke-dasharray:none;stroke-opacity:1"
       d="m 47.036403,53.692916 2.468639,-0.573079 2.292309,0.573077 1.675148,-2.336389 -2.424277,-0.894034 -1.499095,0.188707 -1.768178,-0.206125 -1.978864,0.867368 z"
       id="path12"
       sodipodi:nodetypes="ccccccccc" /><path
       style="fill:none;stroke:#000000;stroke-width:0.499999;stroke-dasharray:none;stroke-opacity:1"
       d="m 49.558828,46.997816 -0.06234,2.711902"
       id="path13" /></g></svg>
