<?xml version="1.0" encoding="UTF-8" standalone="no"?>
<!-- Created with Inkscape (http://www.inkscape.org/) -->

<svg
   width="210mm"
   height="297mm"
   viewBox="0 0 210 297"
   version="1.1"
   id="svg1"
   xml:space="preserve"
   inkscape:version="1.3.2 (091e20e, 2023-11-25, custom)"
   sodipodi:docname="goblin.svg"
   xmlns:inkscape="http://www.inkscape.org/namespaces/inkscape"
   xmlns:sodipodi="http://sodipodi.sourceforge.net/DTD/sodipodi-0.dtd"
   xmlns="http://www.w3.org/2000/svg"
   xmlns:svg="http://www.w3.org/2000/svg"><sodipodi:namedview
     id="namedview1"
     pagecolor="#ffffff"
     bordercolor="#000000"
     borderopacity="0.25"
     inkscape:showpageshadow="2"
     inkscape:pageopacity="0.0"
     inkscape:pagecheckerboard="0"
     inkscape:deskcolor="#d1d1d1"
     inkscape:document-units="mm"
     inkscape:zoom="3.0009779"
     inkscape:cx="59.647224"
     inkscape:cy="109.46432"
     inkscape:window-width="2560"
     inkscape:window-height="1369"
     inkscape:window-x="-8"
     inkscape:window-y="-8"
     inkscape:window-maximized="1"
     inkscape:current-layer="layer1" /><defs
     id="defs1" /><g
     inkscape:label="Layer 1"
     inkscape:groupmode="layer"
     id="layer1"><circle
       style="fill:#00128d;fill-opacity:1;stroke:#000000;stroke-width:2.5;stroke-dasharray:none;stroke-opacity:1"
       id="path1"
       cx="31.914452"
       cy="29.278824"
       r="23.814861" /><path
       style="fill:#7f3d01;fill-opacity:1;stroke-width:0.0499999"
       d="m 24.730481,30.769831 2.997634,-0.793491 11.15296,7.141422 0.837575,4.849114 -2.653919,2.614221 -5.677741,-0.189664 -6.876925,-2.865385 -2.953549,-4.805031 z"
       id="path8"
       sodipodi:nodetypes="ccccccccc" /><path
       style="fill:#00870f;fill-opacity:1;stroke-width:0.0214285"
       d="m 33.269024,19.605208 1.507915,-7.686071 2.265761,8.525614 -0.498209,3.249567 -3.754509,-2.592286 z"
       id="path5" /><path
       style="fill:#af5d13;fill-opacity:1;stroke-width:0.0499999"
       d="m 30.946163,37.205926 5.025445,5.289944 0.749409,-6.215684 -1.05799,-0.837572 -8.33166,-5.069528 -1.895562,0.881656 3.262132,5.245861 z"
       id="path9"
       sodipodi:nodetypes="cccccccc" /><path
       style="fill:#00a112;fill-opacity:1;stroke-width:0.020409"
       d="m 35.929277,36.613454 -2.015307,0.719754 -3.886664,-2.663082 -3.526786,-3.670736 -0.287899,-3.598763 0.07197,-6.549747 2.37518,-1.79938 4.318516,-0.503827 3.814684,1.295553 2.735062,3.022961 0.791725,3.742712 -1.871356,3.094934 1.007652,2.30321 -0.431847,2.08728 -3.238889,-0.5758 z"
       id="path2" /><path
       style="fill:#00a813;fill-opacity:1;stroke-width:0.018643"
       d="m 27.730691,28.707681 -1.436157,-0.626211 -7.814773,-11.343519 8.322171,3.478933 c 0,0 3.630803,1.639225 3.651973,3.562549 0.02528,2.296402 -2.723214,4.928248 -2.723214,4.928248 z"
       id="path3"
       sodipodi:nodetypes="ccccsc" /><path
       style="fill:#030001;fill-opacity:1;stroke-width:0.032557"
       d="m 35.868646,26.820807 0.319325,2.462328 -1.566039,-1.389831 -0.356441,-2.098308 z"
       id="path6" /><path
       style="fill:#00610b;fill-opacity:1;stroke-width:0.0499999"
       d="m 35.846688,33.553332 -2.244331,-1.059823 -1.309195,-1.215681 -0.49874,-1.402707 -0.187029,2.369019 1.527392,2.088475 2.83659,1.527392 z"
       id="path7"
       sodipodi:nodetypes="cccccccc" /></g><g
     inkscape:groupmode="layer"
     id="layer2"
     inkscape:label="Layer 2" /></svg>
