<?xml version="1.0" encoding="UTF-8" standalone="no"?>
<!-- Created with Inkscape (http://www.inkscape.org/) -->

<svg
   width="210mm"
   height="297mm"
   viewBox="0 0 210 297"
   version="1.1"
   id="svg1"
   xml:space="preserve"
   sodipodi:docname="graveyard.svg"
   inkscape:version="1.3.2 (091e20e, 2023-11-25, custom)"
   inkscape:export-filename="graveyard.png"
   inkscape:export-xdpi="96"
   inkscape:export-ydpi="96"
   xmlns:inkscape="http://www.inkscape.org/namespaces/inkscape"
   xmlns:sodipodi="http://sodipodi.sourceforge.net/DTD/sodipodi-0.dtd"
   xmlns="http://www.w3.org/2000/svg"
   xmlns:svg="http://www.w3.org/2000/svg"><sodipodi:namedview
     id="namedview1"
     pagecolor="#ffffff"
     bordercolor="#000000"
     borderopacity="0.25"
     inkscape:showpageshadow="2"
     inkscape:pageopacity="0.0"
     inkscape:pagecheckerboard="0"
     inkscape:deskcolor="#d1d1d1"
     inkscape:document-units="mm"
     showguides="false"
     inkscape:zoom="1.5004889"
     inkscape:cx="-125.95895"
     inkscape:cy="215.5964"
     inkscape:window-width="2560"
     inkscape:window-height="1369"
     inkscape:window-x="-8"
     inkscape:window-y="-8"
     inkscape:window-maximized="1"
     inkscape:current-layer="layer1"><sodipodi:guide
       position="5.1136109,241.89644"
       orientation="1,0"
       id="guide4"
       inkscape:locked="false" /><sodipodi:guide
       position="39.850899,274.25326"
       orientation="1,0"
       id="guide5"
       inkscape:locked="false" /><sodipodi:guide
       position="22.482255,284.21598"
       orientation="1,0"
       id="guide6"
       inkscape:locked="false" /><sodipodi:guide
       position="-8.9047362,291.97456"
       orientation="0,-1"
       id="guide7"
       inkscape:locked="false" /><sodipodi:guide
       position="12.431364,265.08402"
       orientation="1,0"
       id="guide8"
       inkscape:locked="false" /><sodipodi:guide
       position="32.533145,271.34379"
       orientation="1,0"
       id="guide9"
       inkscape:locked="false" /><sodipodi:guide
       position="53.957411,286.94912"
       orientation="0,-1"
       id="guide10"
       inkscape:locked="false" /><sodipodi:guide
       position="-32.356814,274.34142"
       orientation="0,-1"
       id="guide11"
       inkscape:locked="false" /><sodipodi:guide
       position="8.6402391,280.24852"
       orientation="1,0"
       id="guide12"
       inkscape:locked="false" /><sodipodi:guide
       position="36.32427,272.04911"
       orientation="1,0"
       id="guide13"
       inkscape:locked="false" /><sodipodi:guide
       position="29.182848,279.5432"
       orientation="0,-1"
       id="guide14"
       inkscape:locked="false" /><sodipodi:guide
       position="43.289361,266.75917"
       orientation="0,-1"
       id="guide15"
       inkscape:locked="false" /><sodipodi:guide
       position="13.59068,234.47041"
       orientation="0,-1"
       id="guide16"
       inkscape:locked="false" /><sodipodi:guide
       position="26.994332,244.44522"
       orientation="0,-1"
       id="guide17"
       inkscape:locked="false" /><sodipodi:guide
       position="27.684031,243.48342"
       orientation="1,0"
       id="guide18"
       inkscape:locked="false" /><sodipodi:guide
       position="17.45681,249.30236"
       orientation="1,0"
       id="guide19"
       inkscape:locked="false" /></sodipodi:namedview><defs
     id="defs1" /><g
     inkscape:label="Layer 1"
     inkscape:groupmode="layer"
     id="layer1"><path
       style="fill:#b7b7b7;fill-opacity:1;stroke-width:0.0506459"
       d="M 12.529203,52.680539 C 17.457877,41.543069 4.8491161,30.004588 4.8491161,30.004588 c 0,0 3.8106824,0.375156 3.8207333,-7.199516 C 8.676621,17.701736 4.944112,17.454757 4.944112,17.454757 l 7.312745,-7.342355 10.08916,-5.2632887 10.002139,5.2598707 7.499327,7.522105 c 0,0 -3.617895,0.04105 -3.501057,5.093792 0.173703,7.511888 3.504477,7.375847 3.504477,7.375847 0,0 -12.154488,11.972041 -7.45712,22.606768 4.18503,9.474806 4.043968,9.828535 4.043968,9.828535 L 8.5728269,62.517481 c 0,0 -0.3740568,-0.05133 3.9563761,-9.836942 z"
       id="path1"
       sodipodi:nodetypes="scscccccscsccs"
       inkscape:export-filename="graveyard.png"
       inkscape:export-xdpi="225.43759"
       inkscape:export-ydpi="225.43759" /><path
       style="fill:#e6e6e6;fill-opacity:1;stroke-width:0.0152618"
       d="m 22.563151,16.197474 3.498467,0.430581 3.39082,1.937613 1.991439,3.014065 0.43058,2.960242 -1.829969,5.543726 0.322936,2.314372 -1.991435,1.184097 -0.484406,2.368193 -1.668499,0.592048 -0.484402,-1.184095 -0.699694,1.399381 -1.560855,0.376762 -0.699693,-1.507029 -0.753518,1.453209 -1.560853,-0.215295 -0.807338,-1.453209 -0.520712,1.033646 -1.309258,-0.441598 -0.699694,-2.422013 -2.152905,-1.291742 0.322936,-2.422017 -1.776142,-4.897855 0.538225,-3.337001 2.045256,-2.960242 2.798777,-1.6685 z"
       id="path2"
       sodipodi:nodetypes="ccccccccccccccccccccccccccc" /><path
       style="fill:#747474;fill-opacity:1;stroke-width:0.0128326"
       d="m 18.867971,23.567733 -1.47203,0.704016 -0.704016,1.44003 0.416009,1.568034 0.992021,1.216025 0.736017,0.256007 1.600033,-0.544012 0.992021,-1.536033 -0.416007,-1.632035 -1.088025,-1.216026 z"
       id="path3" /><path
       style="fill:#747474;fill-opacity:1;stroke-width:0.0128326"
       d="m 26.733761,23.703394 1.47203,0.704016 0.704017,1.440031 -0.416009,1.568033 -0.992022,1.216026 -0.736017,0.256006 -1.600032,-0.544012 -0.992022,-1.536032 0.416008,-1.632036 1.088025,-1.216025 z"
       id="path3-4" /><path
       style="fill:#747474;fill-opacity:1;stroke-width:0.0145274"
       d="m 22.521486,28.588321 -0.760768,0.796996 -0.326041,0.941902 -0.543407,0.905677 0.07245,0.760767 0.688314,0.253589 0.869448,-0.289817 1.014359,0.362271 0.796994,-0.470951 -0.07245,-0.905676 -0.434724,-0.760769 -0.470952,-1.123038 z"
       id="path4" /></g></svg>
